<svg width="137" height="55" viewBox="0 0 137 55" fill="none" xmlns="http://www.w3.org/2000/svg">
<path d="M18.1818 4.30346e-05H27.2727V9.09095H18.1818V4.30346e-05ZM9.09091 4.30346e-05H18.1818V9.09095H9.09091V4.30346e-05ZM9.09091 9.09095H18.1818V18.1819H9.09091V9.09095ZM0 18.1819H9.09091V27.2728H0V18.1819ZM0 27.2728H9.09091V36.3637H0V27.2728ZM9.09091 36.3637H18.1818V45.4546H9.09091V36.3637ZM9.09091 45.4546H18.1818V54.5455H9.09091V45.4546ZM18.1818 45.4546H27.2727V54.5455H18.1818V45.4546ZM54.5099 4.30346e-05H63.6009V9.09095H54.5099V4.30346e-05ZM45.419 4.30346e-05H54.5099V9.09095H45.419V4.30346e-05ZM45.419 9.09095H54.5099V18.1819H45.419V9.09095ZM36.3281 18.1819H45.419V27.2728H36.3281V18.1819ZM36.3281 27.2728H45.419V36.3637H36.3281V27.2728ZM45.419 36.3637H54.5099V45.4546H45.419V36.3637ZM45.419 45.4546H54.5099V54.5455H45.419V45.4546ZM54.5099 45.4546H63.6009V54.5455H54.5099V45.4546ZM72.6562 4.30346e-05H81.7472V9.09095H72.6562V4.30346e-05ZM81.7472 9.09095H90.8381V18.1819H81.7472V9.09095ZM90.8381 18.1819H99.929V27.2728H90.8381V18.1819ZM81.7472 36.3637H90.8381V45.4546H81.7472V36.3637ZM72.6562 45.4546H81.7472V54.5455H72.6562V45.4546ZM90.8381 27.2728H99.929V36.3637H90.8381V27.2728ZM81.7472 45.4546H90.8381V54.5455H81.7472V45.4546ZM81.7472 4.30346e-05H90.8381V9.09095H81.7472V4.30346e-05ZM108.984 4.30346e-05H118.075V9.09095H108.984V4.30346e-05ZM118.075 9.09095H127.166V18.1819H118.075V9.09095ZM127.166 18.1819H136.257V27.2728H127.166V18.1819ZM118.075 36.3637H127.166V45.4546H118.075V36.3637ZM108.984 45.4546H118.075V54.5455H108.984V45.4546ZM127.166 27.2728H136.257V36.3637H127.166V27.2728ZM118.075 45.4546H127.166V54.5455H118.075V45.4546ZM118.075 4.30346e-05H127.166V9.09095H118.075V4.30346e-05Z" fill="#EAE8E6"/>
</svg>
